HIERARCHY
ROOT Hips
{
	OFFSET -0.001795 -0.223333 0.028219
	CHANNELS 6 Xposition Yposition Zposition Zrotation Yrotation Xrotation 
	JOINT LeftUpLeg
	{
		OFFSET 0.069520 -0.091406 -0.006815
		CHANNELS 3 Zrotation Yrotation Xrotation
		JOINT LeftLeg
		{
			OFFSET 0.034277 -0.375199 -0.004496
			CHANNELS 3 Zrotation Yrotation Xrotation
			JOINT LeftFoot
			{
				OFFSET -0.013596 -0.397961 -0.043693
				CHANNELS 3 Zrotation Yrotation Xrotation
				JOINT LeftToe
				{
					OFFSET 0.026358 -0.055791 0.119288
					CHANNELS 3 Zrotation Yrotation Xrotation
					End Site
					{
						OFFSET 0.000000 0.000000 0.000000
					}
				}
			}
		}
	}
	JOINT RightUpLeg
	{
		OFFSET -0.067670 -0.090522 -0.004320
		CHANNELS 3 Zrotation Yrotation Xrotation
		JOINT RightLeg
		{
			OFFSET -0.038290 -0.382569 -0.008850
			CHANNELS 3 Zrotation Yrotation Xrotation
			JOINT RightFoot
			{
				OFFSET 0.015774 -0.398415 -0.042312
				CHANNELS 3 Zrotation Yrotation Xrotation
				JOINT RightToe
				{
					OFFSET -0.025372 -0.048144 0.123348
					CHANNELS 3 Zrotation Yrotation Xrotation
					End Site
					{
						OFFSET 0.000000 0.000000 0.000000
					}
				}
			}
		}
	}
	JOINT Spine
	{
		OFFSET -0.002533 0.108963 -0.026696
		CHANNELS 3 Zrotation Yrotation Xrotation
		JOINT Spine1
		{
			OFFSET 0.005487 0.135180 0.001092
			CHANNELS 3 Zrotation Yrotation Xrotation
			JOINT Spine2
			{
				OFFSET 0.001457 0.052922 0.025425
				CHANNELS 3 Zrotation Yrotation Xrotation
				JOINT Neck
				{
					OFFSET -0.002778 0.213870 -0.042857
					CHANNELS 3 Zrotation Yrotation Xrotation
					JOINT Head
					{
						OFFSET 0.005152 0.064970 0.051349
						CHANNELS 3 Zrotation Yrotation Xrotation
						End Site
						{
							OFFSET 0.000000 0.000000 0.000000
						}
					}
				}
				JOINT LeftShoulder
				{
					OFFSET 0.078845 0.121749 -0.034090
					CHANNELS 3 Zrotation Yrotation Xrotation
					JOINT LeftArm
					{
						OFFSET 0.090977 0.030469 -0.008868
						CHANNELS 3 Zrotation Yrotation Xrotation
						JOINT LeftForeArm
						{
							OFFSET 0.259612 -0.012772 -0.027456
							CHANNELS 3 Zrotation Yrotation Xrotation
							JOINT LeftHand
							{
								OFFSET 0.249234 0.008986 -0.001171
								CHANNELS 3 Zrotation Yrotation Xrotation
								End Site
								{
									OFFSET 0.000000 0.000000 0.000000
								}
							}
						}
					}
				}
				JOINT RightShoulder
				{
					OFFSET -0.081759 0.118833 -0.038615
					CHANNELS 3 Zrotation Yrotation Xrotation
					JOINT RightArm
					{
						OFFSET -0.096012 0.032551 -0.009143
						CHANNELS 3 Zrotation Yrotation Xrotation
						JOINT RightForeArm
						{
							OFFSET -0.253742 -0.013329 -0.021401
							CHANNELS 3 Zrotation Yrotation Xrotation
							JOINT RightHand
							{
								OFFSET -0.255298 0.007772 -0.005559
								CHANNELS 3 Zrotation Yrotation Xrotation
								End Site
								{
									OFFSET 0.000000 0.000000 0.000000
								}
							}
						}
					}
				}
			}
		}
	}
}
MOTION
Frames: 9
Frame Time: 0.050000
0.000000 0.963255 0.000000 -0.165600 -3.116681 2.466009 0.912446 0.452543 5.315199 -1.096161 0.401902 -10.389208 5.819924 14.281029 17.633219 0.000000 0.000000 0.000000 -1.533736 -0.120579 2.085748 1.978812 -0.293399 -4.649608 -5.307940 -15.339524 13.349641 0.000000 0.000000 0.000000 5.123743 -0.448787 4.329116 -5.871312 1.901099 -27.017873 -1.526447 4.905923 29.018542 6.578327 -2.227420 -22.877255 0.000000 0.000000 0.000000 13.211684 3.322392 -0.102158 -11.374258 -11.270084 -1.410437 23.372566 -0.291572 -0.092571 0.000000 0.000000 0.000000 -6.012358 -13.506918 -4.208656 10.321374 9.054698 -1.314692 -14.344462 2.066059 0.208204 0.000000 0.000000 0.000000 
0.000857 0.962514 0.000455 -0.769859 -3.445632 2.492950 1.033960 0.528576 6.230115 -0.433092 0.453644 -12.165694 5.688776 14.024567 17.239523 0.000000 0.000000 0.000000 -0.869417 -0.247238 3.121266 1.059352 -0.275922 -5.963427 -5.070132 -14.894822 12.945598 0.000000 0.000000 0.000000 6.096172 -0.533236 4.689873 -6.464079 2.025184 -26.991616 -1.535635 5.337353 27.942440 4.823125 -0.982058 -23.386777 0.000000 0.000000 0.000000 13.591691 3.425300 -0.024987 -11.431504 -10.802875 -1.392220 20.963144 -2.675210 -0.449361 0.000000 0.000000 0.000000 -4.856074 -13.371188 -4.295921 9.387583 7.906998 -1.241598 -12.107718 5.722896 -0.090866 0.000000 0.000000 0.000000 
0.001890 0.961533 0.000904 -0.641780 -4.707953 2.378987 0.837667 0.604049 6.756112 -0.244165 0.458544 -11.987641 6.631187 15.338395 18.509535 0.000000 0.000000 0.000000 -1.692271 -0.205902 3.375453 1.896584 -0.314813 -6.527791 -3.922651 -13.107903 13.525644 0.000000 0.000000 0.000000 6.010482 -0.526517 4.740236 -6.455337 1.991007 -28.017094 -1.305128 7.477475 29.667686 6.209390 -1.520050 -24.313996 0.000000 0.000000 0.000000 14.665391 3.480110 0.162561 -11.807526 -11.475168 -1.437309 19.442433 -1.739055 -0.329756 0.000000 0.000000 0.000000 -2.550058 -14.235857 -4.982524 9.849347 9.041852 -1.336831 -14.439817 6.110898 -0.138942 0.000000 0.000000 0.000000 
0.003211 0.961605 0.001680 -0.611196 -4.793416 1.662707 0.450669 0.724407 7.685101 -0.247302 0.468431 -12.211485 6.786620 15.514285 17.700792 0.000000 0.000000 0.000000 -1.993837 -0.264844 4.407408 2.446764 -0.339452 -6.892603 -4.045523 -13.454581 14.242277 0.000000 0.000000 0.000000 6.203822 -0.577329 5.349157 -6.507377 2.003458 -28.128786 -1.523707 7.425246 30.388463 5.282152 -0.970204 -24.348981 0.000000 0.000000 0.000000 15.484922 3.255050 0.230417 -12.470959 -10.255358 -1.538325 17.758996 -1.742156 -0.276842 0.000000 0.000000 0.000000 -2.162160 -14.006599 -4.949913 8.913395 9.222945 -1.285519 -12.360418 5.876025 -0.085421 0.000000 0.000000 0.000000 
0.004661 0.961677 0.002794 -0.399616 -4.638366 1.549894 0.137840 0.777352 7.982200 -0.156870 0.474563 -12.410613 6.333418 14.903893 17.971217 0.000000 0.000000 0.000000 -2.142087 -0.273461 4.658765 1.879024 -0.320462 -6.825727 -3.714949 -12.913809 14.448827 0.000000 0.000000 0.000000 5.830062 -0.557667 5.387505 -5.949761 1.890065 -28.045822 -1.818441 7.580001 29.630936 5.369049 -1.099816 -23.245278 0.000000 0.000000 0.000000 15.882744 2.908321 0.406405 -12.787912 -9.849223 -1.554609 16.398940 -2.894303 -0.383314 0.000000 0.000000 0.000000 -2.691891 -13.453817 -4.690500 9.653912 8.781452 -1.319392 -11.661522 7.207784 -0.153608 0.000000 0.000000 0.000000 
0.006212 0.961629 0.004159 -0.237734 -4.463636 1.408083 -0.352633 0.851351 8.329756 0.036325 0.465623 -12.288422 6.439715 15.033791 17.343392 0.000000 0.000000 0.000000 -2.523863 -0.277107 5.105583 1.903831 -0.325485 -6.979512 -3.740518 -12.869319 14.104635 0.000000 0.000000 0.000000 5.769170 -0.539150 5.244697 -5.996621 1.909457 -27.808006 -1.887230 7.384018 29.449559 5.548873 -1.163551 -23.724359 0.000000 0.000000 0.000000 16.751454 2.740844 0.508881 -13.758855 -9.126710 -1.652468 16.180050 -3.622576 -0.450979 0.000000 0.000000 0.000000 -3.462893 -13.600940 -4.645756 10.430895 9.132630 -1.347704 -11.452456 8.559715 -0.230259 0.000000 0.000000 0.000000 
0.007553 0.961701 0.005583 -0.152918 -4.572966 1.283229 -0.609803 0.921718 8.766272 0.085883 0.482612 -12.653835 6.171168 14.669938 17.743134 0.000000 0.000000 0.000000 -2.524480 -0.293799 5.360745 1.564981 -0.315100 -7.077102 -3.689596 -12.791169 14.095092 0.000000 0.000000 0.000000 5.776483 -0.534025 5.216202 -5.643728 1.839978 -27.528824 -2.198828 7.546739 28.992289 5.776131 -1.337045 -23.269479 0.000000 0.000000 0.000000 16.355751 2.834243 0.494685 -13.566088 -8.406450 -1.660127 15.965716 -4.578161 -0.556144 0.000000 0.000000 0.000000 -3.862508 -13.459029 -4.549219 10.166798 8.752407 -1.324747 -11.583127 10.504697 -0.365440 0.000000 0.000000 0.000000 
0.008731 0.961892 0.006885 -0.006901 -4.543688 1.117283 -0.842746 0.961329 8.943557 0.131728 0.470829 -12.405842 6.203302 14.708991 17.575067 0.000000 0.000000 0.000000 -2.628410 -0.296041 5.508250 1.171118 -0.294068 -6.733583 -3.445626 -12.268313 13.605503 0.000000 0.000000 0.000000 5.799020 -0.552433 5.448429 -5.531246 1.817779 -27.341728 -2.378058 7.331767 28.763459 6.362769 -1.718376 -23.419676 0.000000 0.000000 0.000000 16.436123 3.058532 0.433460 -13.618062 -7.611221 -1.701084 15.542968 -5.381659 -0.616090 0.000000 0.000000 0.000000 -4.411705 -13.560036 -4.504251 9.901349 8.786755 -1.292179 -11.836402 11.967308 -0.487437 0.000000 0.000000 0.000000 
0.009660 0.962179 0.007828 0.002243 -4.593393 0.889557 -0.953303 1.019806 9.373315 0.203436 0.483046 -12.678229 5.855027 14.237131 17.928035 0.000000 0.000000 0.000000 -2.728632 -0.314216 5.897008 1.203558 -0.300673 -6.975279 -3.446262 -12.299976 13.734382 0.000000 0.000000 0.000000 5.901015 -0.566354 5.595632 -5.480639 1.810680 -27.130699 -2.553090 7.394851 28.701982 6.562612 -1.839889 -23.401472 0.000000 0.000000 0.000000 16.328824 2.853432 0.474324 -13.644224 -7.161449 -1.725640 16.363570 -6.069248 -0.746725 0.000000 0.000000 0.000000 -4.412643 -13.569301 -4.508849 9.511415 8.675851 -1.267739 -12.292969 13.412713 -0.628762 0.000000 0.000000 0.000000 
